<mxfile host="65bd71144e">
    <diagram id="D8IWKRIZ9AT4OsLunHU2" name="ページ1">
        <mxGraphModel dx="1179" dy="558" grid="1" gridSize="10" guides="1" tooltips="1" connect="1" arrows="1" fold="1" page="1" pageScale="1" pageWidth="1654" pageHeight="1169" math="0" shadow="0">
            <root>
                <mxCell id="0"/>
                <mxCell id="1" parent="0"/>
                <mxCell id="29" value="" style="rounded=1;whiteSpace=wrap;html=1;" vertex="1" parent="1">
                    <mxGeometry x="80" y="70" width="480" height="240" as="geometry"/>
                </mxCell>
                <mxCell id="27" value="" style="rounded=1;whiteSpace=wrap;html=1;" vertex="1" parent="1">
                    <mxGeometry x="580" y="70" width="660" height="240" as="geometry"/>
                </mxCell>
                <mxCell id="2" value="" style="sketch=0;points=[[0,0,0],[0.25,0,0],[0.5,0,0],[0.75,0,0],[1,0,0],[0,1,0],[0.25,1,0],[0.5,1,0],[0.75,1,0],[1,1,0],[0,0.25,0],[0,0.5,0],[0,0.75,0],[1,0.25,0],[1,0.5,0],[1,0.75,0]];outlineConnect=0;fontColor=#232F3E;gradientColor=#4D72F3;gradientDirection=north;fillColor=#3334B9;strokeColor=#ffffff;dashed=0;verticalLabelPosition=bottom;verticalAlign=top;align=center;html=1;fontSize=12;fontStyle=0;aspect=fixed;shape=mxgraph.aws4.resourceIcon;resIcon=mxgraph.aws4.aurora;" parent="1" vertex="1">
                    <mxGeometry x="100" y="110" width="78" height="78" as="geometry"/>
                </mxCell>
                <mxCell id="3" value="" style="sketch=0;points=[[0,0,0],[0.25,0,0],[0.5,0,0],[0.75,0,0],[1,0,0],[0,1,0],[0.25,1,0],[0.5,1,0],[0.75,1,0],[1,1,0],[0,0.25,0],[0,0.5,0],[0,0.75,0],[1,0.25,0],[1,0.5,0],[1,0.75,0]];outlineConnect=0;fontColor=#232F3E;gradientColor=#60A337;gradientDirection=north;fillColor=#277116;strokeColor=#ffffff;dashed=0;verticalLabelPosition=bottom;verticalAlign=top;align=center;html=1;fontSize=12;fontStyle=0;aspect=fixed;shape=mxgraph.aws4.resourceIcon;resIcon=mxgraph.aws4.s3;" parent="1" vertex="1">
                    <mxGeometry x="280" y="110" width="78" height="78" as="geometry"/>
                </mxCell>
                <mxCell id="4" value="" style="verticalLabelPosition=bottom;verticalAlign=top;html=1;shape=process;whiteSpace=wrap;rounded=1;size=0.14;arcSize=6;" parent="1" vertex="1">
                    <mxGeometry x="440" y="119" width="100" height="60" as="geometry"/>
                </mxCell>
                <mxCell id="5" value="" style="strokeWidth=2;html=1;shape=mxgraph.flowchart.document2;whiteSpace=wrap;size=0.25;" parent="1" vertex="1">
                    <mxGeometry x="620" y="119" width="100" height="60" as="geometry"/>
                </mxCell>
                <mxCell id="6" value="" style="strokeWidth=2;html=1;shape=mxgraph.flowchart.document2;whiteSpace=wrap;size=0.25;" parent="1" vertex="1">
                    <mxGeometry x="630" y="129" width="100" height="60" as="geometry"/>
                </mxCell>
                <mxCell id="7" value="" style="strokeWidth=2;html=1;shape=mxgraph.flowchart.document2;whiteSpace=wrap;size=0.25;" parent="1" vertex="1">
                    <mxGeometry x="640" y="139" width="100" height="60" as="geometry"/>
                </mxCell>
                <mxCell id="8" value="COPY INTO" style="html=1;strokeColor=none;fillColor=#0079D6;labelPosition=center;verticalLabelPosition=middle;verticalAlign=top;align=center;fontSize=12;outlineConnect=0;spacingTop=-6;fontColor=#FFFFFF;sketch=0;shape=mxgraph.sitemap.script;" parent="1" vertex="1">
                    <mxGeometry x="820" y="118" width="120" height="70" as="geometry"/>
                </mxCell>
                <mxCell id="9" value="Table" style="shape=table;startSize=30;container=1;collapsible=1;childLayout=tableLayout;fixedRows=1;rowLines=0;fontStyle=1;align=center;resizeLast=1;" vertex="1" parent="1">
                    <mxGeometry x="1030" y="118" width="130" height="150" as="geometry"/>
                </mxCell>
                <mxCell id="10" value="" style="shape=partialRectangle;collapsible=0;dropTarget=0;pointerEvents=0;fillColor=none;top=0;left=0;bottom=1;right=0;points=[[0,0.5],[1,0.5]];portConstraint=eastwest;" vertex="1" parent="9">
                    <mxGeometry y="30" width="130" height="30" as="geometry"/>
                </mxCell>
                <mxCell id="11" value="PK" style="shape=partialRectangle;connectable=0;fillColor=none;top=0;left=0;bottom=0;right=0;fontStyle=1;overflow=hidden;" vertex="1" parent="10">
                    <mxGeometry width="30" height="30" as="geometry">
                        <mxRectangle width="30" height="30" as="alternateBounds"/>
                    </mxGeometry>
                </mxCell>
                <mxCell id="12" value="UniqueID" style="shape=partialRectangle;connectable=0;fillColor=none;top=0;left=0;bottom=0;right=0;align=left;spacingLeft=6;fontStyle=5;overflow=hidden;" vertex="1" parent="10">
                    <mxGeometry x="30" width="100" height="30" as="geometry">
                        <mxRectangle width="100" height="30" as="alternateBounds"/>
                    </mxGeometry>
                </mxCell>
                <mxCell id="13" value="" style="shape=partialRectangle;collapsible=0;dropTarget=0;pointerEvents=0;fillColor=none;top=0;left=0;bottom=0;right=0;points=[[0,0.5],[1,0.5]];portConstraint=eastwest;" vertex="1" parent="9">
                    <mxGeometry y="60" width="130" height="30" as="geometry"/>
                </mxCell>
                <mxCell id="14" value="" style="shape=partialRectangle;connectable=0;fillColor=none;top=0;left=0;bottom=0;right=0;editable=1;overflow=hidden;" vertex="1" parent="13">
                    <mxGeometry width="30" height="30" as="geometry">
                        <mxRectangle width="30" height="30" as="alternateBounds"/>
                    </mxGeometry>
                </mxCell>
                <mxCell id="15" value="Row 1" style="shape=partialRectangle;connectable=0;fillColor=none;top=0;left=0;bottom=0;right=0;align=left;spacingLeft=6;overflow=hidden;" vertex="1" parent="13">
                    <mxGeometry x="30" width="100" height="30" as="geometry">
                        <mxRectangle width="100" height="30" as="alternateBounds"/>
                    </mxGeometry>
                </mxCell>
                <mxCell id="16" value="" style="shape=partialRectangle;collapsible=0;dropTarget=0;pointerEvents=0;fillColor=none;top=0;left=0;bottom=0;right=0;points=[[0,0.5],[1,0.5]];portConstraint=eastwest;" vertex="1" parent="9">
                    <mxGeometry y="90" width="130" height="30" as="geometry"/>
                </mxCell>
                <mxCell id="17" value="" style="shape=partialRectangle;connectable=0;fillColor=none;top=0;left=0;bottom=0;right=0;editable=1;overflow=hidden;" vertex="1" parent="16">
                    <mxGeometry width="30" height="30" as="geometry">
                        <mxRectangle width="30" height="30" as="alternateBounds"/>
                    </mxGeometry>
                </mxCell>
                <mxCell id="18" value="Row 2" style="shape=partialRectangle;connectable=0;fillColor=none;top=0;left=0;bottom=0;right=0;align=left;spacingLeft=6;overflow=hidden;" vertex="1" parent="16">
                    <mxGeometry x="30" width="100" height="30" as="geometry">
                        <mxRectangle width="100" height="30" as="alternateBounds"/>
                    </mxGeometry>
                </mxCell>
                <mxCell id="19" value="" style="shape=partialRectangle;collapsible=0;dropTarget=0;pointerEvents=0;fillColor=none;top=0;left=0;bottom=0;right=0;points=[[0,0.5],[1,0.5]];portConstraint=eastwest;" vertex="1" parent="9">
                    <mxGeometry y="120" width="130" height="30" as="geometry"/>
                </mxCell>
                <mxCell id="20" value="" style="shape=partialRectangle;connectable=0;fillColor=none;top=0;left=0;bottom=0;right=0;editable=1;overflow=hidden;" vertex="1" parent="19">
                    <mxGeometry width="30" height="30" as="geometry">
                        <mxRectangle width="30" height="30" as="alternateBounds"/>
                    </mxGeometry>
                </mxCell>
                <mxCell id="21" value="Row 3" style="shape=partialRectangle;connectable=0;fillColor=none;top=0;left=0;bottom=0;right=0;align=left;spacingLeft=6;overflow=hidden;" vertex="1" parent="19">
                    <mxGeometry x="30" width="100" height="30" as="geometry">
                        <mxRectangle width="100" height="30" as="alternateBounds"/>
                    </mxGeometry>
                </mxCell>
                <mxCell id="22" value="" style="shape=flexArrow;endArrow=classic;html=1;" edge="1" parent="1">
                    <mxGeometry width="50" height="50" relative="1" as="geometry">
                        <mxPoint x="200" y="148.5" as="sourcePoint"/>
                        <mxPoint x="260" y="148.5" as="targetPoint"/>
                    </mxGeometry>
                </mxCell>
                <mxCell id="23" value="" style="shape=flexArrow;endArrow=classic;html=1;" edge="1" parent="1">
                    <mxGeometry width="50" height="50" relative="1" as="geometry">
                        <mxPoint x="370" y="148.5" as="sourcePoint"/>
                        <mxPoint x="430" y="148.5" as="targetPoint"/>
                    </mxGeometry>
                </mxCell>
                <mxCell id="25" value="" style="shape=flexArrow;endArrow=classic;html=1;" edge="1" parent="1">
                    <mxGeometry width="50" height="50" relative="1" as="geometry">
                        <mxPoint x="750" y="148.5" as="sourcePoint"/>
                        <mxPoint x="810" y="148.5" as="targetPoint"/>
                    </mxGeometry>
                </mxCell>
                <mxCell id="26" value="" style="shape=flexArrow;endArrow=classic;html=1;" edge="1" parent="1">
                    <mxGeometry width="50" height="50" relative="1" as="geometry">
                        <mxPoint x="960" y="152.5" as="sourcePoint"/>
                        <mxPoint x="1020" y="152.5" as="targetPoint"/>
                    </mxGeometry>
                </mxCell>
                <mxCell id="28" value="" style="shape=image;imageAspect=0;aspect=fixed;verticalLabelPosition=bottom;verticalAlign=top;image=data:image/jpeg,/9j/4AAQSkZJRgABAQEAAAAAAAD/4QBCRXhpZgAATU0AKgAAAAgAAYdpAAQAAAABAAAAGgAAAAAAAkAAAAMAAAABAAAAAEABAAEAAAABAAAAAAAAAAAAAP/bAEMACwkJBwkJBwkJCQkLCQkJCQkJCwkLCwwLCwsMDRAMEQ4NDgwSGRIlGh0lHRkfHCkpFiU3NTYaKjI+LSkwGTshE//bAEMBBwgICwkLFQsLFSwdGR0sLCwsLCwsLCwsLCwsLCwsLCwsLCwsLCwsLCwsLCwsLCwsLCwsLCwsLCwsLCwsLCwsLP/AABEIAZABkAMBIgACEQEDEQH/xAAfAAABBQEBAQEBAQAAAAAAAAAAAQIDBAUGBwgJCgv/xAC1EAACAQMDAgQDBQUEBAAAAX0BAgMABBEFEiExQQYTUWEHInEUMoGRoQgjQrHBFVLR8CQzYnKCCQoWFxgZGiUmJygpKjQ1Njc4OTpDREVGR0hJSlNUVVZXWFlaY2RlZmdoaWpzdHV2d3h5eoOEhYaHiImKkpOUlZaXmJmaoqOkpaanqKmqsrO0tba3uLm6wsPExcbHyMnK0tPU1dbX2Nna4eLj5OXm5+jp6vHy8/T19vf4+fr/xAAfAQADAQEBAQEBAQEBAAAAAAAAAQIDBAUGBwgJCgv/xAC1EQACAQIEBAMEBwUEBAABAncAAQIDEQQFITEGEkFRB2FxEyIygQgUQpGhscEJIzNS8BVictEKFiQ04SXxFxgZGiYnKCkqNTY3ODk6Q0RFRkdISUpTVFVWV1hZWmNkZWZnaGlqc3R1dnd4eXqCg4SFhoeIiYqSk5SVlpeYmZqio6Slpqeoqaqys7S1tre4ubrCw8TFxsfIycrS09TV1tfY2dri4+Tl5ufo6ery8/T19vf4+fr/2gAMAwEAAhEDEQA/APXKKKKACiiigAooooAKKKKACiiigAooooAKKKKACiiigAooooAKKKKACiiigAooooAKKKKACiiigAooooAKKKKACiiigAooooAKKKKACiiigAooooAKKKKACiiigAooooAKKKKACiiigAooooAKKKKACiiigAooooAKKKKACiiigAooooAKKKKACiiigAooooAKKKKACiiigAooooAKKKKACiiigAooooAKKKKACiiigAooooAKKKKACiiigAooooAKKKKACiiigAooooAKKKKACiiigAooooAKKKKACiiigAooooAKKKKACiiigAooooAKKKKACiiigAooooAKKKKACiiigAooooAKKKKACiiigAooooAKKKKACiiigAooooAKKKKACiiigAooooAKKKKACiiigAooooAKKKKACiiigAooooAKKKKACiiigAooooAKKKguLu0tF33EqIO24jJPoBTUXJ2RMpKC5pOyJ6KxG8T6SrY2XJ91SPH6vV601TTr3AhlG8jPlvgPj6ZraWHqwXNKLsc1PG4epLlhNNl2iiisDrCiiigAooqKe4trZDJPKka+rED8qaTbshSkoq8nZEtFYj+JtJRioW5b3REI/VxVy01fTbwhY5drnokuFY/gCa3lhqsVzOLscsMbh5y5YzVy/RRRXOdYUUUUAFFFFABRRRQAUUUUAFFFFABRRRQAUUUUAFFFFABRRRQAUUUUAFFFFABRRRQAUUUUAFFFFABRRRQAUUUUAFFFFABRRRQBS1O/TT7V5jgyH5IlP8TmuCuLm4upWmncu7dz2HoB6VveKpCZ7OLPyrG7Ee5PWubr6XLqMYUlPqz4fOsVOpXdK/uxClVmUhlJDKQQRwQR3FJRXpnhnZ6Dqz3itbXDZnjXKMesie/uK3a8+0iVotRsWU43TLGfo52mvQa+YzCjGlV93Zn3eT4qWIoWnq46BRRRXnHsla+u47G2luH/AIRhF/vOegFcDd3lzezNNO5JJO1f4UHoorofFUrBbGHPyuZJCPdcAfzrla+jy2hGNP2nVnxWd4qU63sU9I/mFL05FJRXqngHW+H9XknP2K5fc4XMDt95gBkqTXR15vZSNFd2jqcFZ4vy3DIr0gHIB9Rmvmsxoxp1FKPU+3yXFSr0XCbu4/kFFFFeYe6FFFFABRRRQAUUUUAFFFFABRRRQAUUUUAFFFFABRRRQAUUUUAFFFFABRRRQAUUUUAFFFFABRRRQAUVHJcW0RxJNEh9HdVP5E0JcW0pxHNE59EdWP5A1XK7XsTzxva+pJRRRUlBRRRQBx/ij/j8t/8Arj/WufroPFH/AB+W/wD1x/rXP19bgv4ET87zP/e6nqFFFFdZ5xb07/j/ANP/AOvqD/0MV6LXnWnf8f8Ap/8A19Qf+hivRa+fzX44+h9hw/8Awp+oUUUV459Kcr4r/wBZp3+5P/Na5mum8V/6zTv9yf8AmtczX1eA/wB3j/XU/Ps2/wB8n8vyQUUUV2nlktv/AK+3/wCusf8A6EK9KX7q/wC6P5V5rb/6+3/66x/+hCvSl+6v+6P5V4Wbbx+Z9Zw9tU+X6i0UUV4h9SFFFNd44xud1QersFH5mjcTdtWOoqEXliTgXNuT6CVP8amyDyOh6U3FrdCjKMtncKKKKRQUUUUAFFFFABRRRQAUUUUAFFFFABRRRQAUUUUAFFFFABRRRQAUUUUAFcvrOvSK72lk20L8ssw6k9Cq/wBa3dSnNtY3kw6rGQPYt8oP6152SSSScknJJ7mvXy3DRqN1J62PnM7xs6KVGm7N6v0FZ3c7nZmPqxJP5mhXdDuRmVvVSQfzFNor6C3Q+Ou73N+w8R3UG2O7BmiHAbpIo+vQ11Nre2d6ge3lVuMlejr9VPNeb1JFNNA6yQyMjqcgqcGvOxGX06usNH+B7eDzmtQ92p70fx+89MorltP8TEbY79c9vOQc/VlFdLDPBcIJIZFdD3Ugj6HFeDWw9Sg7TR9bhcbRxSvTevbqcn4o/wCPy3/64/1rn66DxR/x+W//AFx/rXP19Lgv4ET4fM/97qeoUUUV1nnFvTv+P/T/APr6g/8AQxXotedad/x/6f8A9fUH/oYr0Wvn81+OPofYcP8A8KfqFFFFeOfSnK+K/wDWad/uT/zWuZrpvFf+s07/AHJ/5rXM19XgP93j/XU/Ps2/3yfy/JBRRRXaeWS2/wDr7f8A66x/+hCvSl+6v+6P5V5rb/6+3/66x/8AoQr0peFUn+6P5V4Wbbx+Z9Zw9tU+X6i013jjVnkZUReSzEAD6k1kX/iCytN0cP7+YcYU/Ip92rlLzUr6+YmaU7M/LGvCL7Yrlw+X1KustEehjM3o4f3Ye9Ly2+86K/8AEsMe6OyXzH6eY2Qg7cDqa5m4vLy6dnnmdyexOFH0UcVXor3qGFp0F7q17nyOKx9bFP8AePTt0CtPT9YvbFx87Swk/PG5z7ZUmsyitp041FyyV0c1KtOjLnpuzPS7e4huoY54W3JIMj2PcGpa5nwrcMVu7YkkLtlX2z8pArpq+SxNH2NRwP0TBYj6zQjV6sKKKK5zsCiiigAooooAKKKKACiiigAooooAKKKKACiiigAooooAKKKKAKeqQtcafexL1aIkf8BIf+leeV6fXI61oc0ckl1aIXiclpI15ZGPJIHpXsZbiIwvTl1Pms8wc6qVamr20foc7RS8jg0lfQHyAUUUUCCrFteXdm4e3lZD3A+6w9CKr0UpRUlZlRlKD5ouzL2o6hJqLwySIquibG2/dbnOQDVGiilCCguWOxVSpKrJzm7thRRRVGZb07/j/wBP/wCvqD/0MV6LXnWnf8f+n/8AX1B/6GK9Fr5/Nfjj6H2HD/8ACn6hRRRXjn0pyviv/Wad/uT/AM1rma6bxX/rNO/3J/5rXM19XgP93j/XU/Ps2/3yfy/JBRRRXaeWPjfZJG+M7HVseuDnFaF9rN/e/Jv8qHgCOPjOP7x61mUVnKnGUlKS1RtCtUhFwi7J7hRRRWhiFFFFABRRV6w0y81CQCJCIwRvlbIRR9fWpnOMFzSdkaU6c6slCCu2bXhWFs3lwfukLCPc/eNdRUFpaw2cEVvEMKg692J5JNT18jia3tqrmj9EwOH+rUI0nutwooornO0KKKKACiiigAooooAKKKKACiiigAooooAKKKKACiiigAooooAKKKKAMy/0SwvtzbfKmOf3kYHJ/wBod65O+0i/sSS6b4c8SR5K+2fSu/oIBBBAIIwQehFd+Hx1SjpujycZlVDE+8vdl3X6nl9Fdpf+HbO43SW2IJjk4A/dsfp2rlbuwvbJytxEQOdrjlGHqDXvUMXTr/C9ex8ji8ur4V3mrrutirRRRXWecFFFFABRRRQBb07/AI/9P/6+oP8A0MV6LXnWnf8AH/p//X1B/wChivRa+fzX44+h9hw//Cn6hRRRXjn0pyviv/Wad/uT/wA1rma6bxX/AKzTv9yf+a1zNfV4D/d4/wBdT8+zb/fJ/L8kFFFFdp5YUUUUAFFFPjjllZUjRndjgBRk80XtuNJt2Qyp7e1urpxHBE7sf7o4HuTW9p/hqR9sl8xRevlIfmPszdq6a3tra1jEcEaxoOyjGT6mvLxGZQp6U9X+B72DyWrW96t7q/H/AIBhaf4ahj2yXzCR+D5S/wCrH1PeugRI41VI1VUUYCqMAD6CnUV4NavUrO82fWYfCUsNHlpK35hRRRWJ1BRRRQAUUUUAFFFFABRRRQAUUUUAFFFFABRRRQAUUUUAFFFQXd1BZwvPM2EXoO7HsBTjFydkTKSgnKTskT0VxN54i1C4ZlgIgi6ALgufctVAajqYbcLu4znPMjEfkTivVhldRq8mkeBUz6hGVoxbXc9Forj7LxLdREJdqJo/7ygLIB/I11Fre2d4ge3lV/VejD6g81x18LVofEtO56WFzChivgevZ7liiiiuU7wpskcUyNHKiujdVcAg/gadRQnbVCaTVmc1f+GY23SWLbW6+U5yp7/K1czPb3Fs5jnieNx2YfyPSvS6hubW1u0MdxErqRxkfMP909a9XD5lOGlTVfieDjMkpVfeo+6/w/4B5rRXR3/hqaLdJZMZU6+W3Dj6HpXPOkkbFHVlYdQwII/A17tKvTrK8GfJ4jC1cNLlqq35DaKKUAkgDkngYrY5i7pUbSajYBQTtnRzj0Q7jXoVc94e0qS3BvLhdsrrtiU9VU9SfrXQ18zmNaNSraPQ+5ybDSoULz0cncKKKK809s5jxXGxFjLg7V81Ce2WwR/KuWr0XULJL+1lt24J+aNv7rjoa4C4tp7WV4Z0Kupxz0I9Qa+ky2tGVL2fVHxOd4aUK/tukvzIaKKK9Q8AKUAsQACSegAyTWnYaLf3xDbfKh7ySAjP+6OtdXYaPYWADInmS95ZAC2f9kdBXDiMdTo6bs9bB5VXxPvW5Y93+hzmn+Hry62yXGYITyARmRh7Cuqs9PsrFdtvEAe7nl2+rHmrVFeBXxdSv8T07H12Ey6hhVeKu+73CiiiuQ9EKKKKACiq91e2dmhe4lVPRerH6Ac1zF74lupSUtFEMf8AeYBpCP5Cuqhhatf4Vp3ODFZhQwvxvXstzr6K86Oo6mW3G7uM5zxIwH5A4q/Z+ItQt2VZyJ4uhDYDj3DV2TyuqleLTPNp59QlK04tLudtRUFrdW95Ck8DZRuo7qe4NT15UouLsz34yU0pRd0wooopFBRRRQAUUUUAFFFFABRRRQAUUUUAFcV4hvWuLwwKT5VtuTH/AE0zhia7WvPdWjePUb8MMb7iaRf91nJFerlcU6rb6I+fz6co0FFbN6lGiiivoz4oKkimmgcSQyOjjoUJB+hxUdFJq+jGm07o6iw8TEbY79c9B5yDn6so/pXSQzQToskMiujAEFTnr615nVi1vLuzcSW8rIe4HKt9QeK8vEZbCetPR/gfQYPO6lL3a3vLv1/4J6RRWBYeJLabbHdr5Mh43jJjY/zFbysjqrIwZWGQykEEexFeFVozou01Y+rw+KpYmPNSlcWiiisTpCqt3p1hejFxCrN2cfK4/wCBDmrVFVGUou8XZkThGouWaujnz4WsCciecD0+Q/zFX7TRdMsyHSLfIP45fmP4A8fpWjRW8sVWmrSkzlp4DDU5c0YK4VFPcW9tG0s8iog6lv6CkurqCzheeZgqKPxY+gFcJqWpT6jMXclYlJEUeeFHqfetcJhJYh32RhmGYwwcbLWT2X+Z1v8Ab+if8/J/79S//E1fguLe6jEsEiuh7r/Uda80q9p2o3GnTB0JaNsCWPPDD/GvQq5XHlvTbv5njYfPpuaVZLl8j0Kq91ZWd4uy4iVx2J4YfRhzS2l3b3kKTwNlW6jup9CKnrxPepy7NH1PuVodGmYD+F9PZsrNOg9BtP8AMVbtdB0u1IfyzK46NLyP++en6VqUVtLF1pKzkzlhl+GhLmjBXAAAAAYA4AFFFFcx3BRRRQAUUjMiKzOwVVGWZiAAPcmsC/8AEltDujs1E0g43nIjU+3c1tSozrO0Fc5sRiqWGjzVZWNyaaCBGkmkVEUEkscdPSubv/ExO6OwXHUec45+qqf61z91eXd45kuJWc9geFX6AcVXr3cPlsIa1NX+B8pjM7qVfdo+6vx/4BJLNNO5kmkd3PUuST9Bmo6KK9RK2iPn223dhRRRTEbfh69a3vBAT+6udqYz/HnAIrta890mN5NRsAozsuIZG/3VcE16FXzmaRSqprqj7XIZylQcXsnoFFFFeUfQBRRRQAUUUUAFFFFABRRRQAUUUUAFYHiDSnukF3brmaJcSKOroOePcVv0VrRqyozU4nPicPDE03SnszzAggkEYIOCD2NJXe3+i2F9ufb5U5HEkfGT/tCuTvtIv7AlnTfD2ljBK4/2vSvpsPjadbTZ9j4fGZXXwutrx7r9TOooortPKCiiigAq9Zapf2DDypCY88xPkoao0VM4RmuWSujSnUnSlzQdmdzYa9YXm1JD5Ex42uflY/7LdK168wrVsNcv7LajN50A/gc8gf7LV4uIyz7VH7j6bB579nEr5r9Ud1RVOw1Kz1BC0LYdQN8bcOv4elXK8WUJQfLJWZ9RTqRqxU4O6YVDdXVvZwvPOwVFH4sfQCi6uYLSGSeZsIg/EnsBXCalqVxqMxdyViUkRRjoo9T712YTCSxErv4UebmOYxwcbLWT2X6sNS1K41GYu5KxKSIo88KPU+9UKKs2dncX0ywwLkn7xP3UX1NfTJQpQstEj4aUqmIqXesmVqK7MeGdO8jyy0nnbf8AW5/ix6elcre2VxYzNDMuCOVYfddfUVjRxdOu3GD1OnFZfXwsVKotGS6dqNxp0wdCTGxAljzww/xru7S7t7yFJ4GyrDkd1PoRXm1XtO1G406YOhJjYgSxnow/xrDGYNV1zR+L8zryzM3hX7OprB/gehUVBa3UF5Ck8LZRh+KnuDU9fMyTi7M+4jJTSlF3TCiiqV/qVnp6Bpmy7D5I1++34elOEJTfLFXYqlSNKLnN2SLtZF/r1jZ7kjPnzDjah+VT/tN0rm7/AFy/vdyK3kwH+CM8kf7TVl17eHyz7VZ/I+Xxme/Zw6+b/RF291S/v2PnSER9o0yEH4VRoor2YwjBcsVZHzNSpOrLmm7sKKKKozCiiigApQCSABkk4AHc1oWOkX9+QyJsh7yyAhcf7PrXWWGi2Fjtfb5s4HMknOD/ALIrixGNp0dN32PVweV18Vra0e7/AEKfh/SntUN3cLiaVcRqeqIeefc1v0UV8zWqyrTc5H3GGw8MNTVKGyCiiisjoCiiigAooooAKKKKACiiigAooooAKKKKACggMCCAQeoPIoooAw7/AMO2dxuktsQS9cAfu2P0rlbuwvbJ9txEVyflYco2PQ16NUNybQQyfavL8nHz+bjbj8a9PD4+pT92XvL8Tw8blFCsnOHuv8DzWir2pf2X55/s8SeXzu3/AHd2f4PaqNfRwlzRTtY+KqQ5JON727BRRRVGYUUUUAT2tzNaTxTxMQyMCcdGHcGvRLeZLiCGdPuyor/TIzivNK7zQN/9l2m7OcyYz6bzivGzWmuRT67H02QVpe0lS6WuUvFRP2S0GeDcHPv8hrkK7/WNPOoWvlocSxt5kWehbGMGuDlilhkeKRSroSGU9QRWuW1IulyLdHPnlKccR7RrR2GV32i2ttb2Nu0QUtMgkkcdWJ964GtrRtZexcQTktasfqYye49vWtcfRnVpWh0/EwynE0sPXvV66X7HbVnaxa21xY3BmCgxRtJG56owHrV3z7cxed5qeVt378jbtxnNcdrOsves1vAStqp5PQykdz7V4eDoVKlROOlup9VmWKo0aDU9eZaLuYlFFPjjkldI41LO5AVV5JJr6vbc/P0m3ZHV+FSfs16M8CZMe3y10VZujac2n2pRzmWVhJLjoDjAArSr5DFzjOtKUdj9Gy+nKlhoQnukRXEyW8E07/diRnx64GQK87urma7nlnlYlnJPPYdgK7XXt/8AZd3tzn93nHpvGa4OvWyqmuRz67Hz2f1pe0jS6WuFFFFeyfMhRRRQAUUVe03+y/PH9oeZ5fG3b93Of4/apnLli5WuaU4e0ko3tfuR2lhe3r7beItg/Mx4Rc+prqrDw7Z2+2S5xPL1wR+7U/Sta2NoYY/svl+Tj5PKxtx+FTV83iMwqVPdj7q/E+1wWUUKKU5+8/wAAKAAAAOgHAooorzT3AooooAKKKKACiiigAooooAKKKKACiiigAooooAKKKKACkLKoJYgAdSTgD86y9Q1yxstyKfOnH8CHgH/AGmrlL7Vr+/JEj7Yu0ScLj39a78PgalbV6I8jGZtRw14r3pdl+rOiv8AxHa2+6O0Anl6buka/j3rlru+vL199xKzYPyr0Rf91arUV79DCU6HwrXufI4vMK+KfvvTstgooorqPPCiiigAopeTwOta2n6DfXm15B5EB53OPmYf7K1nUqwpLmm7G9GhUry5KauyhaWs15PFBEpLOeSOir3Jr0SCFLeGGFPuxIqD3wMZqCx0600+PZAvzN9+RuXb8fSrdfN43F/WJJR2R9tleX/U4uU/if4BWTq+kRaghkjAW6QfK3ZwP4WrWorjp1JUpKUXqelWowrwdOorpnmUsUsMjxSqVdCQynqDTK7rV9Ii1CMyRgLdIPlbs4H8LVxEsUsMjxSqVdCQytwQa+pwuKjiI3W/VHwOPwE8HOz1i9mHmS7PL3tsznbk7c/SmUU+OOSV0jjUs7kBVUZJJrq0WpwaydgjjkldI41LO5AVV5JJrttH0eOwQSygNdOPmPUID/CtGj6PHYIJZQGunHzHqIwf4VrXr57G432n7unt+Z9lleVqglWrL3ui7f8ABCiiivJPoSO4hS4hmhf7sqMh9sjGa86u7WaznlglUhkJwT0ZexFek1TvtOtNQjCTr8y/ckXh1/H0r0MFi/q8mpbM8fNMv+uRUofEvxPO6K19Q0K+s9zoDNAOdyD5lH+0tZPTg19JTqQqLmg7nxFahUoS5KisxKKKK0MQooooAs2l9eWT77eVlz95eqN/vLXVaf4jtbjbHdAQS9N3WNj9e1cZRXLXwlOv8S17noYTMK+FfuPTs9j08MrAFSCD0IOQfypa8/sdWv7AgRvui7xPyuPb0rq9P1yxvdqMfJnP8Dngn/ZavAxGBqUdVqj67B5tRxNov3Zdn+jNWiiiuA9cKKKKACiiigAooooAKKKKACiiigAooooAK5/xDqj2yizgbEsq5kYcFEPGB7mugrz3VZHk1G/LHO24mjX2VXIFejl1FVat5dDxc5xMqFC0NHLQpEkkk8k8nNJRRX058KFFFFAgooqza2V5evst4mf1boq/VjxSlJRV5MuEJTfLFXZWq/Y6Vf37Dy4ysXeWTIQfTua6PT/Dlrb7ZLoieUchf+Wan1x3rdVVUBVUKoGAFAAA9gK8fEZml7tLXzPo8Hkcpe9iHZdupl2GhWFltdh50w6vIAQD/sr0rVoorxKlSdR803c+po0KdCPJTVkFFFMklihUvK6Io7uQB+tQlfRGraSux9FZTeINFU4+0E4/uxyEfyqe31bS7ptkNwu/+64KH8NwFavD1UruL+4544uhJ8sZq/qi9WXqujwaiodSI7hRhXxww9GxWpRU06kqcuaDszStRhXg4VFdM5D/AIRW/wD+fi2/8if/ABNbWlaNBpwMjESXDDBfHCj0TNatFdFXG1qseWT0OKhleGoT54R1CiimySRRKXldUQdWcgD9a499j0W0ldjqKyZPEGjoSBMzkcHYjY/MipbfWtJuWCJcBXPaQFP1bit3h6qV3F/ccyxmHlLlU1f1NGigEHBHIPIxRWB1BWTf6FYXu51HkzH+OMYUn/aXpWtRWlOpOm+aDsY1qFOvHkqK6PPr7Sr+wY+ZGWi7SxglD9e4qhXp7KrAqyhlIwQwBBHuDWFf+HLW43SWpEMp5K9Y2P07V7eHzNP3aunmfLYzI5R97Du67dTjaKs3VleWT7LiJk9G6q30YcVWr2IyUleLPnJQlB8slZhRRRTIClBIII4I5GKSigZ2Hh/VXuVNncNuliXMbnq6DjB9xXQV57pUjx6jYFTjdcQxt7qzgGvQq+YzGjGlVvHqfdZNiZV6Fp6uOgUUUV5x7QUUUUAFFFFABRRRQAUUUUAFFFFABXFeIrJre7M6j91c7mz6SZyQa7Wobq1gvIXgnXcjfmD2IrrwmI9hU5unU8/MMH9bouC36HmtFbl54c1CBma3xPF1GMBx7FaoDS9VLbfsdxnOMmNgPzPFfTQxFKaupI+FqYOvTlyyg/uKVSwwT3DiOGN5HPZATx6nFbtl4ZuZCr3jiJOuxCC5H16CuntrO0tECW8SoO5A+Yn1JPNcdfMadPSGr/A9LCZLWre9V91fic/YeGQNsl+2eh8lDx9GYf0rpIooYUWOJFRFAACjAwKfRXg1sRUrO82fW4bB0cKrU18+oUUUVgdYUEhQSxAAGSScAD3JrMv9asLHchbzZh/yzjOcH/aPQVyd9q9/fEh3KRdooyQv49678PgalbXZHk4zNaOG91e9Lsv1Oiv/ABFaW26O2AnlGRuziNT9R1/CuVur68vXL3ErN6L0Vfoo4qtRXv0MJTofCte58hi8wrYp++9Oy2ClBIII4I5BHakorqOA6vw/q8krCxuW3Ng+Q7Hkgfwk/wAq6WvN7Jyl5ZuDgrPEf/HhXpA5APqK+azKjGnUUo9T7fJMTOtRcJu7j+QUUUV5h7pFcTxW0Es8pwkalj6n2FcDqGo3WoSs8jERgny4wflUfT1rpPFErLZwxg4EkwLe4UHiuOr6DLKEVD2r3Z8dnmKm6nsE9Fv5hRRRXsHzZqWGtX9iQu/zYe8cpJx9D1rqrHWdPvgFV/Lm7xSHB/A9DXA0oJBBBII6EcEVw4jA0q2uzPWwma18N7t7x7P9D0+iuJsPEF7abUmzPCMDDH51A/ut/jXU2Wp2F+B5Mg345jbhx68GvBr4OrQ1auu59bhMyoYrSLs+z/rUu0UUVxnpDJYoZkaOVFdGBBDDPBrm7/wyDuksGx1PkuePorH+tdPRW9HEVKLvBnJicHRxStUXz6nmk0E9u5jmjeNx2cEceozUVek3NnaXaFLiJXHYkfMD6gjmuYvfDNzGWezcSp/ccgOB9ehr3qGY06mk9H+B8li8lrUfepe8vxOdoq4dL1UNt+x3Gc4yI2I/McVoWfhzUJ2VrjEEXU5wXPsFrsniKUFdyR5tPB16kuWMH9wnh2ya4uxOw/dW21s+smcgCu1qG1tYLOFIIF2ov5k9yamr5jFYj29Tm6dD7rL8H9UoqD36hRRRXKegFFFFABRRRQAUUUUAFFFFABRRRQAUUUUAFFFFABRRRQAUVFPcW9shknkSNB3Y4yfQVzOoeJZH3R2ClF5BlcfMf91e1dNHDVK79xfM4sVjqOFV6j17dToLzULKxXdcSAMfuovLt9FrldQ8QXl1ujgzBAeMD/WMOnzNWPJJLK7PI7O7ElmY5JJple9h8vp0tZas+RxmcVsR7sPdj+P3ikkkkkknqTyaSiivRPGCiiigQUUUUATWv/Hzbf8AXaP/ANCFekr91foK82tf+Pm2/wCu0f8A6EK9JX7q/QV4Obbx+Z9bw98NT5C0UUV4p9Qc54q/1Fp/10b+VclXW+Kv9Raf9dG/lXJV9Rl38BHwWc/73L5fkFFFFegeOFFFFABTlZ0YMjFWHQqSCPyptFA9joLDxJcw7Y7wGaPpvHEg+vY11Fre2d6m+3lV+Mlejr/vL1rzepIppoHWSGRkdTkMpwRXmYjLqdTWGj/A9vCZzWoWjU96P4/eemUVyth4mZdsd8u4dPNjHP8AwJa6WC4t7lBJBIkiHjKnOD6GvCrYapQfvo+swuOo4pXpvXt1JaKKK5ztCiiigAooooAKKKKACiiigAooooAKKKKACiiigAooooAKKKKACiiigArO1bU49Ng3YDTyZESf+zH2FaNcN4hmeTUp1JysIREHoNoY124Kgq1W0tlqeXmmKlhaHNDd6IoXN3dXkhkuJGducA/dUeiiq9FFfVKKirI+AlJzfNJ3YUUUUyQoopyI8jBEVmYnACjJP5UD32G0VoXWlXlnax3NwAhklEax/wAYypOW/Ks+ohOM1eLuaVKU6T5ZqzCiiirMia1/4+bb/rtH/wChCvSV+6v0FebWv/Hzbf8AXaP/ANCFekr91foK8HNt4/M+t4e+Gp8haKKK8U+oOc8Vf6i0/wCujfyrkq63xV/qLT/ro38q5KvqMu/gI+Czn/e5fL8gooor0DxwoorSn0a/igiuUTzYXQPmPlkB/vColUjBpSdrmsKU6ibgr23M2il5HB60lWZhRRRQIKntrq6tJBJbysjDrg8EehFQUUmlJWZUZOL5ouzO90jVY9RiIYBbiMDzEHQj+8vtWnXn+j3DW2oWrg8O/lMOxD/LXoFfL47DqhU93Zn3uVYyWKo3n8S0CiiiuA9YKKKKACiiigAooooAKKKKACiiigAooooAKKKKACiiigAooooAK4bxBE8epzsQQsoR0PqNoBruazdW0xNShABCzxZMTHpz1U+1duBrqjVvLZ6Hl5phZYqhyw3WqOBoqe4tLq1do54nQg4yR8p+h6VBX1Sakro+AlFxfLJWYUvJ4HU9KvWWk398w8uMpH3lkBCD+prrLDQ7Cy2uw86cfxyDIH+6vSuPEY2nR0bu+x6WDyyvitUrR7v9O5zmn6De3m2SUGCA87mHzsP9lf8AGusstNsbBQIYxv8A4pG5c/iauUV4GIxlSvo3Zdj6/CZbQwusVeXd/wBaGB4p/wCPK2/6+V/9AauOrsfFP/Hlbf8AXyv/AKA1cdXt5b/AXqz5bO/97fogooor0TxSa1/4+bb/AK7R/wDoQr0lfur9BXm1r/x823/XaP8A9CFekr91foK8HNt4/M+t4e+Gp8haKKK8U+oOc8Vf6i0/66N/KuSrrfFX+otP+ujfyrkq+oy7+Aj4LOf97l8vyCiiivQPHCvRtP8A+PKy/wCuKfyrzmvRtP8A+PKy/wCuKfyrx81+CPqfS8P/AMSfoVb/AEPT73cwXyZj/wAtIwBk/wC0vQ1yt9o+oWJJZPMhzxJHyPxHX9K76ggEEEAgjBB5BFedh8dVo6bo9rF5TQxPvJcsu6/U8vortr/w9ZXW6SD9xMcn5R+7Y+6jp+FcteaZf2TETRNt5xIgLIR65Fe9QxlKvs7PsfJYvLa+F1krruilRRU9va3V06pBE7knHA4H1PSuptRV2efGLk7RV2WdIt2uNQtFAOEcSMR2CfNzXoFZej6UmnRMzkNcSgeYw6KP7q1qV8vjsQq1T3dkfeZTg5YWj7+71CiiiuA9cKKKKACiiigAooooAKKKKACiiigAooooAKKKKACiiigAooooAKKKKAGvHFKNskaOPR1DD8jUC2GnKdwtYM/9c1P8xVmiqUpLRMiVOEndoAAoAAAA4AAwB+AoooqSwooooAwPFP8Ax5W3/Xyv/oDVx1dj4p/48rb/AK+V/wDQGrjq+ny3+AvVnwmd/wC9v0QUUUV6J4pNa/8AHzbf9do//QhXpK/dX6CvNrX/AI+bb/rtH/6EK9JX7q/QV4Obbx+Z9bw98NT5C0UUV4p9Qc54q/1Fp/10b+VclXW+Kv8AUWn/AF0b+VclX1GXfwEfBZz/AL3L5fkFFFFegeOFejaf/wAeVl/1xT+Vec16Np//AB5WX/XFP5V4+a/BH1PpeH/4k/QtUUUV8+fYBSFVYFWAKnggjIP1BpaKAKxsNOY7jawZ/wCua/4VOkcUY2xxog9EUKPyFOoqnKT0bIjThF3irBRRRUlhRRRQAUUUUAFFFFABRRRQAUUUUAFFFFABRRRQAUUUUAFFFFABRRRQAUUUUAFFFFABRRRQAUUUUAYfiaNn09GUcRTo7ew2sv8AWuLr0yeGO4hlgkGUkUqw+veuA1DT7nT5mjkBMZJ8qQD5XX/H1r6DLK0XD2T3Pj89ws1UVdLR6PyKVFFFewfNFiyUvd2aDq08Q/8AHhXpA4AHoBXM+H9IkjYX1ym07T5CMOef4yD+ldNXzeZVo1KijHofb5Jhp0aLnNW5vyCiiivLPeMDxREzWcMgGRHMA3sGB5rjq9LubeO6gmgkGUkUqfb0IrgL/T7rT5jHKp2kny5APlceor6DLK8XD2T3R8dnmFmqvt0tHv5Mp0UUV7B82KASQAMknAHvXpNohjtrVD1WJAfriuV0LR5ZpY7u4QrBGQ8YYYMjDkEewrsK+fzOvGclTj0Psciws6cZVZq3NsFFFFeOfSBRRRQAUUUUAFFFFABRRRQAUUUUAFFFFABRRRQAUUUUAFFFFABRRRQAUUUUAFFFFABRRRQAUUUUAFFFFABRRRQAUUUUAFMlhgnRo5o1dD1DjIp9FNNp3Qmk1ZmLJ4a0mRiwNxHn+GN0Cj6BkNWbXRdLtGDpEXcHKtNtZgfbAFaNFbyxNaS5XJ2OSOBw8Jc8YK4UUUVznYFFFFABTJYYZ0aOaNXRhgqwBFPopptaoTSaszGl8N6TIxYefHn+GJkCj8GU1NbaFpVswYRtIwIKmYq2CO4wBWnRW7xNZrlcmckcDhoy5lBX9AAA4AwB6UUUVznYFFFFABRRRQAUUUUAFFFFABRRRQAUUUUAFFFFABRRRQAUUUUAFFFFABRRRQAUUUUAFFFFABRRRQAUUUUAFFFFABRRRQAUUUUAFFFFABRRRQAUUUUAFFFFABRRRQAUUUUAFFFFABRRRQAUUUUAFFFFABRRRQAUUUUAFFFFABRRRQAUUUUAFFFFABRRRQAUUUUAFFFFABRRRQAUUUUAFFFFABRRRQAUUUUAFFFFABRRRQAUUUUAFFFFABRRRQAUUUUAFFFFABRRRQAUUUUAFFFFABRRRQAUUUUAFFFFABRRRQAUUUUAFFFFABRRRQAUUUUAFFFFABRRRQAUUUUAFFFFABRRRQAUUUUAFFFFABRRRQAUUUUAFFFFABRRRQAUUUUAFFFFABRRRQAUUUUAFFFFABRRRQAUUUUAFFFFABRRRQAUUUUAFFFFABRRRQAUUUUAf//Z;" vertex="1" parent="1">
                    <mxGeometry x="610" y="210" width="70" height="70" as="geometry"/>
                </mxCell>
                <mxCell id="24" value="" style="shape=flexArrow;endArrow=classic;html=1;" edge="1" parent="1">
                    <mxGeometry width="50" height="50" relative="1" as="geometry">
                        <mxPoint x="550" y="148.5" as="sourcePoint"/>
                        <mxPoint x="610" y="148.5" as="targetPoint"/>
                    </mxGeometry>
                </mxCell>
                <mxCell id="30" value="" style="shape=image;imageAspect=0;aspect=fixed;verticalLabelPosition=bottom;verticalAlign=top;image=data:image/jpeg,/9j/4AAQSkZJRgABAQEAAAAAAAD/4QBCRXhpZgAATU0AKgAAAAgAAYdpAAQAAAABAAAAGgAAAAAAAkAAAAMAAAABAEoAAEABAAEAAAABAAAAAAAAAAAAAP/bAEMACwkJBwkJBwkJCQkLCQkJCQkJCwkLCwwLCwsMDRAMEQ4NDgwSGRIlGh0lHRkfHCkpFiU3NTYaKjI+LSkwGTshE//bAEMBBwgICwkLFQsLFSwdGR0sLCwsLCwsLCwsLCwsLCwsLCwsLCwsLCwsLCwsLCwsLCwsLCwsLCwsLCwsLCwsLCwsLP/AABEIASUB2gMBIgACEQEDEQH/xAAfAAABBQEBAQEBAQAAAAAAAAAAAQIDBAUGBwgJCgv/xAC1EAACAQMDAgQDBQUEBAAAAX0BAgMABBEFEiExQQYTUWEHInEUMoGRoQgjQrHBFVLR8CQzYnKCCQoWFxgZGiUmJygpKjQ1Njc4OTpDREVGR0hJSlNUVVZXWFlaY2RlZmdoaWpzdHV2d3h5eoOEhYaHiImKkpOUlZaXmJmaoqOkpaanqKmqsrO0tba3uLm6wsPExcbHyMnK0tPU1dbX2Nna4eLj5OXm5+jp6vHy8/T19vf4+fr/xAAfAQADAQEBAQEBAQEBAAAAAAAAAQIDBAUGBwgJCgv/xAC1EQACAQIEBAMEBwUEBAABAncAAQIDEQQFITEGEkFRB2FxEyIygQgUQpGhscEJIzNS8BVictEKFiQ04SXxFxgZGiYnKCkqNTY3ODk6Q0RFRkdISUpTVFVWV1hZWmNkZWZnaGlqc3R1dnd4eXqCg4SFhoeIiYqSk5SVlpeYmZqio6Slpqeoqaqys7S1tre4ubrCw8TFxsfIycrS09TV1tfY2dri4+Tl5ufo6ery8/T19vf4+fr/2gAMAwEAAhEDEQA/APXKKKKACiiigAooooAKKKKACiiigAooooAKKKKACiiigAoopryRxKXkdUQdWcgAfiaTaSuxpN6IdRWNc6/aR5W3Rpm6bj8kf5nn9KyJ9Y1OfI83ylP8MI2/+PH5v1rx8RnWFo6J8z8v89j0qOWV6mrVl5/5HXPLFGMySIg9XYKP1qnJq+lR5zcoxHaMM/8A6CMVxzMznc7MzerksfzNJXj1OIaj/hwS9df8j0oZNBfHJv00/wAzqm1/TR0E7fSMD/0Iimf8JDZf88bj8k/+KrmKK5HnuLfVfcdCyrDro/vOoHiGwPWK4H/AUP8A7NUqa5pTdZHT/fjb+ma5KinHPsWt7P5CeU4d7XXzO4ivrCb/AFdzCx9N4B/I81Yrz/ip4bu8t/8AUzyp7BiV/wC+TxXdS4if/L2H3P8AR/5nJUyZf8u5fedzRXNW/iC5TAuYklXu0fyP+XT+VbNrqVhd4EUoEh/5ZyfK/wCAPX8K9zDZlhsTpCWvZ6P+vQ8utga9HWUdO6LlFFFeicQUUUUAFFFFABRRRQAUUUUAFFFFABRRRQAUUUUAFFFFABRRRQAUUUUAFFFFABRRRQAUUUUAFFFFABRRRQAUUUUAFFFFABRRRQAUUUUAFFFFABRRRQAUEgAknAHJJ7VFcXEFrG0szhUH5sfRR61yt/qtzelkXMdv2jB5f3cj+VebjsxpYNe9rLov62O7C4KpiXpou5rXuuww7o7UCWQcFz/qlPtjrXPXFzc3Tb55Wc9geFX/AHVHFQ0V8Ri8wr4t++9Oy2PqMPg6WHXuLXv1CiiiuA6wooooAKKKKACiiigAooooAKKKKANSz1q8ttqSkzwjjDn94o/2W/xrpLW9tbxN0D5I+8jcOn1FcPT45JYXWSJ2R16Mpwa9vBZxWw9oz96P4/Jnl4rLadb3o+7L8DvaKx9N1mO5Kw3O2Oc4Ct0SU+3oa2K+1w+Jp4mHtKTuj5itQnQlyTQUUUV0GIUUUUAFFFFABRRRQAUUUUAFFFFABRRRQAUUUUAFFFFABRRRQAUUUUAFFFFABRRRQAUUUUAFFFFABRRRQAUUUUAFFFFABRRRQAVXu7uCyhMsp9kUfedvQU+4uIbWGSaU4RB+LHsoHqa428u5r2ZppDgdI0B4RfQf1rx8zzJYOHLHWb28vNnpYHBPEyvL4V/Vgu7y4vZTLMeBkRoPuoPQf1qtRRXwU6kqknObu2fWxjGCUYqyQUUUVBQUUUUAFFFFABRRRQAUUUUAFFFFABRRRQAUUUUAFdBpOrnKWt23XCwzMfyVz/I1z9FdeExdTCVPaU36ruc+Iw8MRDkn/wAMegUVhaNqZk22dw3zgYgdj98D+An19P8AOd2v0PC4qGKpqpD/AIY+NxFCeHm4TCiiiuowCiiigAooooAKKKKACiiigAooooAKKKKACiiigAooooAKKKKACiiigAooooAKKKKACiiigAooooAKKKKACiiigAoJABJ4A5JNFY2u3vkxC1jbEk4zIR1WLpj8elc2KxEcNSdWfQ3oUZV6ipx6mTqt+b2fahP2eIkRjs56Fz/T/wCvWdRRX5tXrTr1HUm9WfbUqcaUFCGyCiiisTQKKKKACiiigAooooAKKKKACiiigAooooAKKKKACiiigAooooAUEgggkEEEEcEEcgiuv0q/F7BhyPtEWFlH970cD3rj6s2V09ncRzrkgHbIo/ijPUf4V6mWY54Std/C9/8AP5HDjsKsTTsviWx29FNR0kRJEIKOoZSO4IyKdX6Gmmro+NatowopGZVBZmCqOpYgAfiaqSappcRIa6jJHZMv/wCgA1nUrU6Ws5JersXCnOfwJsuUVmHXdKH/AC0kP0jf/CnprWkt/wAt9v8Avo4/XFYLH4VuyqR+9Grwlda8j+40KKiiubWf/UzRSeyOCfyHNS11RkpK8XdHPKLi7NBRRRVCCiiigAooooAKKKKACiiigAooooAKKKKACiiigAooooAKKKKACiiigAooooAKKKKAGyOkaSSOcIis7H0AGTXD3Nw91PNO/WRsgf3VHCr+FdFr9z5dslup+a4b5v8ArmnJ/M4rl6+Mz/Fc9RUFtHV+r/4H5n02UUOWDqvd/kFFFFfNHthRRRQAUUUUAFFFFABRRRQAUUUUAFFFFABRRRQAUUUUAFFFFABRRRQAUUUUAdBouoxRwTQXEiosH7yNnP8AAx5UfQ/zpt34gkYlLNNq9PNlGWPuqdPzrBor1Vm2IjQjQg7W69Tg/s+i6rqyV79OhJNPcTtumlkkP+2xIH0HSo6KK8uUnJ3k7s7klFWQUUUUhijIIIyCOhHB/MVoW2sajbEAyedGP4Jsk49n61nUVtRr1KMuanJpmdSlCqrTVzsrLVLO9wqny5scxORk/wC6ehq9XAAkEEEgg5BBwQR3BFdFpeslylteN85wsUx43Hsr+/v/AJP1uXZ0qrVLEaPo+j/yPnsZljppzo6rsbtFFFfSnhhRRRQAUUUUAFFFFABRRRQAUUUUAFFFFABRRRQAUUUUAFFFFABRRRQAUUU2RxHHJIeiIzn6KM0m7K7GlfRHJaxP59/MAflhAhX/AIDy365rOpzMzs7t952Zz9WOabX5dXqutVlUfV3PvKVNUoKC6IKKKKxNAooooAKKKKACiiigAooooAKKKKACiiigAooooAKKKKACiiigAooooAKKKKACiiigAooooAKKKKACiiigAooooA6fRdRM6/ZZ2zNGuY2PWRB6+4rZrgopZIZI5Yzh42DKfcdjXcW06XMEM6fdkUNj0PQj8K+4yXHPEU/ZVH70fxX/AAD5XM8KqM/aQ2f5ktFFFfQHkBRRRQAUUUUAFFFFABRRRQAUUUUAFFFFABRRRQAUUUUAFFFFABVLVZPL0+8IPJj2D/gZC1drK19sWGP708S/zb+lceOnyYapLyf5HThI81eC80cpRRRX5mfcBRRRQAUUUUAFFFFABRRRQAUUUUAFFFFABRRRQAUUUUAFFFFABRRRQAUUUUAFFFFABRRRQAUUUUAFFFFABRRRQAUUUUAFdF4euCVubUn7pE0f0b5WH8vzrna0NGk8vULb0kDxH/gS5H8hXo5ZWdHFQl3dvv0OPHU/aYeS+f3HYUUUV+jnxQUUUUAFFFFABRRRQAUUUUAFFFFABRRRQAUUUUAFFFFABRRTXeONWeRlVFGWZiAB9SaTaSuxpX0Q6sfxD/x5w/8AXwn/AKC1R3XiCFMpaR+aenmPlY/wHU/pWLc317d8TyllB3BFAVAfXAr5vM81w8qUqMHdvtt9/wDke1gcBWVSNWasl33KtFFFfGH0wUUUUAFFFFABRRketGR6igAooyPUUUAFFFFABRRkeooyPUUAFFFFABRRRQAUUZHqKMj1FABRRRQAUUUZFABRRkeoooAKKKKACiinpHLKcRxyOf8AYVm/kKaTbsgbtqxlFWhp+pEZFpcY/wBwj+dNezv4+XtbhR6+WxH5gVq6FVK7i/uZmqtN6KS+8r0UdDg8EdQeD+VFYmgUUUUAFTWsogubaZslYpUdgvUgHnFQ0VUZOElJboUoqSafU61Nc0p+DJIn/XSNsfmuauw3VpP/AKmeJ/ZWBP5da4WjoQRwR0I4NfQ0+IK8f4kU/wAP8zxp5PSfwSa/E9AorjrfVtRtsASmRB/BN84x7H7361uWmt2dwVSb9xKePnOYyfZ/8a93C5xhsQ+Vvlfn/meVXy2tR1SuvL/I1aKODyOhor2DzQooooAKKKKACiiigAooooAKKKKACiiqGpajHYx4GGuHB8tOw/2m9v8AP0yrVoUIOpUdkjSnTlVkoQV2x99qFtYplzukYfu4lPzN7n0HvXK3d9dXr7pn+UHKRrkIv0Hr71BLLLNI8srl5HOWY/yFMr4LMM0qYt8q0h2/zPrcHgYYZXesu/8AkFFFFeSegFFFFABRRRQAUUVLbxGe4t4R/wAtZUQ/Qnk/lVRi5NRW7FJqKuzqtMs4I7G18yGNpHTzGLorHL/NjJFXPs1p/wA+8P8A37T/AAqUAAAAYAAAHsKMjIGRk5wO5xX6dSw9OlCMLLRWPhalac5uV9yL7Naf8+8P/ftP8K4u7h8i6uoe0crhf90nI/Su5rl9fh2XkcoHE8Qz/vJ8p/TFeHn2HToKpFfC/wAH/wAGx6mU1mqrg3uvyMeiiiviz6c6zSEtprC3ZoYmdN8bFkQklWPU4+lX/s1p/wA+8P8A37T/AArI8OyZhu4v7kiyD6OuP6VuV+i5dyVcLTlZbflofGY3mp4icb9fz1OU12FIbxCiqqyQq2FAAypKngfhWVXQ+I4/lspfRpIz+IDD+Rrnq+MzWn7PFzS9fvR9NgJ8+Hi2FauhwpNesXVWWOF2wwBGSQo4P41lV0PhyPi9l9WjjH4Asf5ijKqftMXBP1+7UMfPkw8mv6ubX2a0/wCfeH/v2n+FI1raMrL5EI3KRny07jHpU1FfoXsoPoj472ku5wDKVZlPVWZT9QcUlW9Rj8q+vUxgeczD6P8AP/Wqlfl9WHs5yg+jaPu4S54qXcK6nRLaE2KPJFGzSSSMC6KTgHaOSPauWrt9Pj8qysk9IUJ+rDca93IKSnXlJrZfmeVm9RxopLqyT7Naf8+8P/ftP8K5rXfKF5HFGiII4V3BFC5ZiTzj8K6quK1KTzb+9fOQJSg+iDZ/SvUz5xp4dRS1bODKVKdZyb2RUqWC3nuZVhhQs7fgFHqx9KirsdLsVsrdQQPPlAeY989l+gr53LcC8bV5XpFbns43FrDU79XsQ2eiWcAVpwJ5ep3D92p/2V/xrUVVUBVUKo6BQAB+Apazb7V7WyYxAGWYdUQgBc/3mNfbqOGwFO+kV/XzZ8tevi521k/6+40qK5r/AISK6z/x7Q49Nz5/Or1nrltcOsUyGF2ICkndGSe27jH5VhSzbCVZcinr5po1qZdiKceZxNC4s7O6BE8KP/tYw4+jDmua1LSZLLMsRMlsTgk/fjJ6BsdveuspHRJEeN1DI6lWB6EHgirx2XUsXF3VpdH/AJ9xYXG1MPJWd12OAoqe7tza3M8Bz+7chSe6HlT+VQV+dzg4ScZbo+xjJSSktmFFFFSUFFFFABRRRQBoWOqXdkVXJkg7xOeg/wBg9q6i0vLa8j8yFs44dTw6H0YVw9SwTz20qywuVdfyYejD0r2svzaphWoT96H4r0/yPMxmXwrrmjpL8/U7uiqWn6jDfx8YSZAPNjz0/wBpfb/P1u19zSqwrQVSm7pnytSnKlJwmrNBRRRWpmFFFFABRRRQAUUUEgAkkAAZJPQAUAVr28isoHmfk/djTu7noP8AGuMmmluJZJpW3SOck9h6Aew7Va1O9N7cMwJ8mPKQj27t+NUa+AzbHvFVeWD9xbefn/kfX5fhFh4c0vif9WCiiivGPSCiiigAooooAKKKKACtfQIfMvHlI4giJH+8/wAo/TNZFdToEPl2bSkczyMw/wB1PlH9a9bJ6PtcXHstfu/4Njz8xq+zw8vPT+vka9ZNzd7NY06HPy+VIrj/AGpen8hWtXGX1yW1Ke4U/wCqnXYR6REAfyr6nN8V9Xpwa6yX3LU8HLqHtpyT7P8AHQ7OsfxBDvtI5QOYJQT/ALr/ACn+la6sHVHXoyhh9CM1Ddw/aLW5h7yROB/vYyP1ruxlL2+HnBdV/wAMcmGqeyrRm+jOGoo+vXvRX5kfcmvoEmy9kj7SwsB9UIb/ABrqa4rTpPKvrJ84HmhD9H+T+tdrX3GQVObDOHZ/n/TPls3hy1lLujL12PfYO3/PKWN/wztP865Ou3v4/NsryPuYZCPqo3CuIryeIKfLiIz7r8j0Mnnei49mFdZoUeywRv8AnrLI/wCGdn9K5Ou3sI/KsrJO4hQn6sNxo4fp82IlPsvzDOJ2oqPdlmiobicQCAnH724hh5/2zipq+0Uk24rdHzLi0k+5yuvR7L/f2lhRvxXKf4Vk10HiOP8A48pcd5IyfqAw/rXP1+d5rT9ni5rzv9+p9lgJ8+Hg/l9w5FLvGg6u6oP+BECu+AChVHQAAfQcVxemR+Zf2S+koc/RAX/pXaV73DtO1OdTu0vu/wCHPIzmd5wh5X/r7hsjiOOWQ9ERnP0UZrgiSxZj1Ylj9Sc12Ory+Vp92c4LqIh9XIWuNrl4hqXqQp9lf7/+GOjJoWhKfd2+7/hy5psQmv7NCMqJPMYHuEBf+ldpXJaH/wAhGP8A65TY/IV1tejw/FLDyl1b/RHHnEm6yXZEN1N9ntrmbvFE7j6gcVwzMzszMSWYlmJ6ljySa7PVFZtPvgOvlE8eikMa4uvO4hnL2sI9LfqdmTRXs5S63CiiivmT3Ds9Kna4sbZ3JLqDG5Pcoduau1y+navFZW/kPDI58x3ypUDDY45q5/wkdv8A8+03/fSV95hc1wyoQVSfvWV9z5PEZfWdWThHS+mxT8QIFvYnH/LSBc/VWI/wrHq/qd+l/LDIkbII0ZCHIOcnPaqFfIY+cKmJnOm7ps+iwkZQoRjPdBRRRXEdQUUUUAFFFFABRRRQBJDNNbypNExWRDkEfyI9K7Gwvor6ESL8si4WVO6t/ge1cVVmyu5LKdJkyV+7Kn99D1H19K9fLMweDqWl8D3/AMzz8dg1iYXXxLb/ACO3opsUkc0ccsbBkkUMpHcGnV+gJpq6Pj2mnZhRRRTEFFFFABWRrt55NutuhxJcZDY6iIdfz6Vr1xWo3Jury4lBygby4/8AcTgfn1/GvFzrFeww/LHeWny6/wBeZ6mWUPa1uZ7R1/yKlFFFfAn1oUUUUAFFFFABRRRQAUUUUAKASQB1JAH1PAruraIQQW8I/wCWcaJ+IHJrktKh8+/tVIyqMZm+icj9cV2VfX8PUbRnWfXQ+czmreUaa9SO4lEME8x/5Zxu/wCQzXB5JyT1OSfqeTXWa5L5dg6A8zOkX4Z3H+VcnXJxBV5q0afZfn/wx05PTtSlPu/yOy0mXztPtCTkovlN9UO3/Cr1YXh2XMV3AT9yRZFHs4wf5Vu19Ll1X2uFhLyt92h4eNp+zrzj5/nqcTqEPkXt3HjAEhdf91/nH86q1t+IYdtxbTgcSxmNv95DkfzrEr4PH0fY4mcPP8HqfW4Sp7WjGfkKGKlWHVSGH1BzXexuJI45B0dFcfRhmuBrstJk83T7Q5yVQxn/AIASte1w9UtUnT7q/wB3/DnmZzC8Iz7O33/8MXiAQQehBB+hrgZEMcksZ6o7of8AgJIrvq4zVI/L1C9XsZPMH0cBq6uIqd6cJ9m19/8Awxz5NO05Q7q/3f8ADlREMjxxjq7og/4EQK74AKAB0AAH0FcZpcfmahZL6SeYfogLV2dHDtO1OdTu0vu/4cM5necYdlf7/wDhjE8QTGNLBQeRP53/AH7Ax/OtpSGVWHRgCPoea5jxDJuu4Y+0cHP1dif6Ct7T5PNsbJ+5hQH6qNp/lXZhMRz46vD0/DR/mc2Io8uEpS9fxKuvR77BmxzFLG/4E7D/ADrk67fUI/Nsr1O5hcj6qNw/lXEV4nEFPlxEZ91+R6mTzvRcezNfQI918z/88oHP4sQv+NdTWB4cj+W9lx1aOMH6Asf5it+vdyWnyYSL73f6foeVmk+bEtdrGJ4ikxBbRf8APSUufoi//Xrmq2PEEm67ijHSKEZ+rkn/AArHr5XN6ntMXPy0+7/gnv5dDkw0fPUu6XKIb+zc8AuYz/20BWuzrgORgg4I5BHYiux0y+S9t1JI8+MBZl75/vD2Nevw/iYrmw8t3qv1POzig3asvRl1lVlZWGVYFSD0IPBFcdqGnTWMjcFrdj+6k6gA/wALe9dlSMqupV1DKwwQwBBHuDXtZhl8MbBJuzWzPLweMlhZXWqe6OAorqLnQbOXLW7NAx52j5o/++Tz+tY9xpGpW+T5XmoP4ofm/NfvfpXxmIyvE4fVxuu61/4J9NRx9CttKz7PQz6KXkEgggjqDwR9RSV5h3BRRRQAUUUUAFFFFABRRRQAUUUUAFFFFAG9oF6VZrKQ/K2ZIM9m6sv9fzroq4KOR4pI5UOHjZXU+4Oa7m3mS4ghnT7sqK49s9R+Ffa5Fi3VpOhLeO3p/wAA+YzbD8k1Vjs/zJKKKK+jPFCiiigCpqU/2eyupAcNsKJ/vP8AKP51xVdN4hk221vH/wA9Jtx+iKT/AFFczXw2fVefEqH8q/PX/I+qymny0ObuwooorwD1wooooAKKKKACiiigAooooA6Dw7D/AMfdwR/dhQ/+PN/SugqjpMHkWFspGGdfNb6v838sVer9Iy2j7DCwh1tf79T4rG1fa15S/rQ5zxFLmW0gH8CNK31Y7R/I1hVd1WXzr+7bsjCJfog2/wA81Sr4XMavtsVOfn+Wh9Xg6fs6EI+X56mpoUvl36oTxNG8f4j5x/KusrhbaXyLi2m/55yox+gPNd11r6fh+rzUZU+z/P8ApnhZxTtVjPuvyMvXYfMsWcDmB0k/4D90/wA65Ou8niE0M8R6SRun/fQxXCEFSVPVSVP1Bwa87iCjy1o1F1X5f8OduT1OanKHZ/mJXTeHZN1tcxf885tw+jr/APWNczWz4ek23U8RPEsO4fVG/wDr1w5PU9njIeen9fM6sxhz4aXlqdPXLeII9t7G/wDz1gX81JH+FdTWD4jjyllLj7ryRk/7wDD+VfVZ1T58HJ9rP8TwMsny4lLvdFTQI917I/8AzygY/ixC/wCNdTWD4cj+S9lx9544wf8AdBY/zreJABJ6Dk0slp8mDi+92GZz5sS12sjjdVk8zULw/wB1xGP+AKBW7oMm+wC94pZE/A/OP51y8rmSWaQ9ZJJH/wC+mJrd8OSf8fsX/XOQfqp/pXz+V1+bMHL+a/8Amexj6VsGo/y2/wAjoCAwKnoQQfoeK4F0MckkZ6o7p/3ySK76uL1SPyr+9HYyeYPo4DV6XEVO9OFTs2vv/wCGOLJp+/KHdX/r7zoNCj2WCtjmWWR/wzsH8q1KrafH5VlZJ3EKE/VhuNTyOI45JD0RGc/RRmvcwkPZYeEX0S/I8rES9pWk11bON1KTzb+9fOQJSg+iAJ/SqdKWLFmPViWP1JzSV+bVantJym+rb+8+2pw5IKK6IKlgnntpFlhcq69+xHow9KioqYycWpRdmimlJWZ1VlrlpOFS4xBL0yT+6Y+zHp+NawIIBBBB5BHINef1YgvLy2P7id0HXbnKH/gLcV9Lhc/nBcteN/Nb/wBfceJXyiMnek7eT2O4ornLfxDKuBcwBx/fhO1vqVbj9a2bXULG84hlG/GTG/yuPwNfQ4fMcNidIS17PR/16HjVsFWo6zjp3FubGyuwRNEpbs4+Vx9GHNc5qGjz2YaWImW3HJOPnjH+0B2966yggEEEZB4IPepxmW0cWndWl3X9alYbHVcO9Hddjz+itLV7EWdwDGMQTgvGOysPvJ/h/wDWrNr8/r0ZUKjpT3R9fSqRqwU47MKKKKxNAooooAKKKKACiiigAooooAK6bw9Pvt54CeYZNy/7knP881zNa2gyFL4p2lhdfxUhh/WvUymt7LFw89Pv/wCCcGYU/aYeXlr9x1VFFFfoh8aFFFFAHPeIz81iO22Y/wDoIrAre8R/6yx/3Jv5rWDX55m/++z+X5I+yy7/AHaHz/NhRRRXlHeFFFFABRRRQAUUUUAFS28Rnnt4R/y1kRD9CeTUVa+gw+ZeNKRxBGSP95/lH9a6cJR9vXhT7v8ADr+BhiKnsqUp9kdSAAAAMAAAD0AoopryRxjdI6IucZdgoz6ZNfp10lqfDatlQ6TpTFmNspLEsSWfkk5J60n9kaR/z6p/30/+NWftVn/z8Qf9/E/xo+1Wf/PxB/38T/GuL2GE/lj9yOn2uI/ml97K39kaR/z6p/30/wDjV1QFCqOigAfQcVH9qs/+fiD/AL+J/jT0kikyY5EcDg7GDY+uK2pQoQf7pJX7W/QzqSqzX7xt+tx1cbqsPk390oHDsJV+jjJ/XNdlXPeIocPaXAHUNC34fMP615We0faYXnX2Xf8AQ9DKqnJX5e6/4JgVd0uTytQs27M5jP0cFapU5GMbxuOqOrj6qc18TRqeyqRn2aZ9RUhzwcO6O+rM1yPfp8rf88njk/Xaf51pKwdVYdGUMPoRmoL6PzbO8j/vQSY+oUkV+k4uHtcPOK6p/kfEYeXs60ZdmipocezT427yySSfrtH8qt3snlWl5J/dhkx9SpAosY/Ks7OP+7BHn6lcmqmuSbNPlH/PV44//Htx/lXN/u2A9I/jb/M3/j4v1l+pyQ7Vq6DJsv8AZ2lhkX8Vw/8ASsqrWnyeVfWT5wPOVT9H+T+tfC4Kp7PEQl2aPq8TDnozj5M7auY12EnULfA/4+I40/EPs/qK6es3ULfzbvRnx9y4fd9Avmf+y191mlD2+H5PNfnb9T5XAVfZVubyf5XNEAKFUdFAA+g4qlq0vlafdnOC6CMfVyFq9WJ4ikxb20X/AD0mLH6Iv/1xWuYVPZYWcvL89DPBw9pXgvP/AIJzVFFFfmp9sFGR61u+HlRmvgyq3EJG4A/3vWug8qD/AJ5R/wDfC/4V7+DyV4qiqyna/l527nk4nM1h6jpuN7eZwXFFdL4gjRbWBlRVxcKCVUDqrelc1Xm43CvCVXSbuduFxCxFP2iVgpQWUqykqynKspwQR3BFJRXEdJ12kX7XkDLKf38JCuf76no3+NaVctoDlb517PA+f+AlSK6mv0PKcRLEYZSnutD43MKMaNdqOz1MrXog9iXxzDLG4PsTsP8AOuUrsdYx/Zt7/up/6GtcdXzmfxSxKa6pfmz28ok3Qa7P/IKKKK+fPXCiiigAooooAKKKKACiiigAq9pJxqNn7s4/NGqjV3Sv+QjZf77f+gNXTg/94p/4l+ZhiP4M/R/kdnRRRX6efChRRRQBgeI0+Wxk9GlQ/iAR/KuerrtbhMthKwHMLJKPoOD+hrka+Czym4Yty7pP9P0PrcqnzYdLs3/mFFFFeIeoFFFFABRRRQAUUUUAFdToEPl2bykczyEj/dT5R/WuXwTgDqSAPqeK7q2hEFvbwj/lnGin6gcmvosgo89eVR/ZX4v/AIFzxs3q8tJQ7v8AIlrnvEU2TaW47bpmH/jq/wBa6GuO1abzr+6IPyxkQr/wAYP65r2s8rezwvL/ADO36nmZVT56/N2X/AKGB6CjA9BRRXwZ9YGB6Ctrw9LsubiHtLEHA/2kP+BrFq1p83kXtnJnAEoRv91/kP8AOuzA1fY4mE/P89Gc2Lp+1oyh5HbVn6zD52nz4HzRbZl/4Cef0zWhTXRZEkjb7rqyH6MMV+jYikq1KVN9U0fGUans6kZ9mcDRTnRo3kjb70bsh+qnFNr8uaadmfeJ31R2mmSebYWTk8iIIfqnyf0q4QCCD0PBrH8PybrSWPvFM35OA3+NbFfpWBqe1w0JeS/yPh8XD2decfMAAAAOg4FYPiOTEdlF/eeSQ/8AARtH863q5fxBJuvY0/55QLn6sSf8K5M6qcmDku9l+J05ZDmxKfa7MelDFSrDqpDD6g5pKK/Pz6879GDojjo6qw+hGaCASpI5U5X2OCKqaZJ5thZMTk+UEP1T5P6Vcr9TpTVWnGfdJnwVSPJNx7OwVzHiCTddwxjpFCCfq5J/oK6euL1OXzb+9fOQJDGPogCf0rxM/qcuGUO7/LU9TKIc1dy7Ip0UUV8OfUmx4fkCXkkZ/wCWsJx9UIb/ABrqK4S3me3ngnXrE4bHqOhH4iu4iljmjjljO5JFDKfY19rkGIUqLoveL/B/8E+Yzei41FU6P80VNWt2ubGdFGXTEqAdSU5wPwzXG16BWJfaEszvNaMsbMSzRvnYSe6kdPypZzltTENVqKu1o0PLcbCinSqaLozmqK0TourA48hT7rImP1NWLfQLt2BuXSJO4Qh3PsMfLXzMMuxU5cqpv5q35nuSxlCKu5of4egYzXFyR8iJ5Sn1ZiGOPp/WukqOCGG3iSGFQsaDAH9SfWpK+8wGF+qUFS69fU+SxeI+sVXU6GTr0gSx2Z5mljUD2X5z/KuVrU1q8FzdCOM5itwUBHRnP3iP5Vl18Vm+IVfFScdlp93/AAT6fLqLpUEnu9Qoooryj0AooooAKKKKACiiigAooooAK0dFTdqNv/sLK5/BSP61nVu+HYSZbqcjhEWJfqx3H+Qr0MtpupiqcV3v92pyY2fJh5vy/PQ6Oiiiv0g+JCiiigBHRZEdGGVdWVh6gjBrhbiB7aeaB+sTlc+q9QfxFd3WFr1kXRb2MfNGAkwHdOzfh/npXgZ5hHWo+1jvH8up6+VYj2VX2ctpfmc5RRRXwx9UFFFFABRRRQAUUUUAXdLh8+/tVIyqN5zfRPm/niuzrgUeSM7o3dGxjKMVOPTIqT7Td/8APxP/AN/X/wAa93Ls0hgqbg4Xbd9zysbgJYqalzWSO3mkEMU0p6Rxu5/4CM1wZZmLM33mJZvqTk1I09ywKtPMynghpHII9wTUVY5lmP11xsrJGmBwX1VSu7thRRRXkHohRz269vrRRQB3VrKJ7a2m/wCekSMfrjmpq4NZ7lAFSaZVHRVkcAfQA077Td/8/E//AH9f/GvrYcQxUUpQd/U+elk7cm1LT0Lesw+TqExAwswWYfUjB/UVnU55JZCDI7uQMAuxYgemTTa+ZxFSNWrKpFWTdz3KMHCnGEneyNvw7Jie6izw8SuPqjY/rXS1wKvIh3I7I2MZRipx9RUn2m7/AOfif/v6/wDjXt4DOVhaKpSje3meXi8teIquopWud1XGapJ5moXrf3ZPLH/AAFqD7Td/8/E//f1/8aiJJJJJJJySeSSe5NY5lmqxtNU4xtZ3NMFgHhpuble6sJRRRXhnqnU6BJusnTPMUzj8GAYfzNa9cEks0eRHJIgPJ2Oy5+uDT/tN3/z8T/8Af1/8a+nwueRoUY0pQvZW3PCxGVOrUlNStc7iRxGkjnoiM5+ijNcEWLsznq7Fj9WOakNxdMCGnmIIwQZHIIPYgmoq8/M8xWO5bRslf8TswOC+q813e4UUUV5B6IVp6Zqj2J8uQF7ZjkgfejJ/iX+o/wAnMorahXnh5qpTdmjOrShWi4TV0d3BcW9ygkgkV1P908j2I61LXApJJEweN3Rh/EjFT+Yq9HrOrRgDzw4H/PRFY/n1r6ujxDTatWi0/I+fq5PNP93LTzOworlP7e1T/ph/37P/AMVUb6zqzgjzwo/6ZogP5kE10Sz/AAqWib+X/BMVlFd7tf18jrXkjiUvI6og6s5AA/E1z+pa2HV4LInacq83QkekY6/jWLLNPMd00skh9ZGLY+majrx8ZnlStFwpLlX4/wDAPSw2VQpPmqO7/AKKKK+ePYCiiigAooooAKKKKACiiigAooooAK7PS7Y2tnDGwxIw82T/AHn5x+HArn9HsjdXIkcfubch3z0Z+qr/AFP/ANeutr67IMI0niJddF+p87m+Iu1Rj6v9Aooor6o8AKKKKACkZVYMrAFWBDA8gg8EGlooA47U7BrGb5QTbyEmFvTuUPuKoV3dxbw3UTwzLuRh+IPZgfUVx99Yz2MuyT5o2z5UgHyuPT6+tfCZrljw0va017j/AA/4HY+sy/HKvHkn8S/EqUUUV4R6oUUUUAFFFFABRRRQAUUUUAFFFFABRRRQAUUUUAFFFFABRRRQAUUUUAFFFFABRRRQAUUUUAFFFFABRRRQAUUUUAFFFFABRRRQAUUUUAFFFFABRRRQAUUUUAFFFFABUsEE1zLHDEuXc/go7sfYUkUUs8iRRIXkc4UD+ZPpXXadp0VhF2adwPNk/wDZV9h/n29TLsvnjJ9ord/ovM4cbjI4aH957IntLWKzgjgj6KMsx6u56sanoor9BhCNOKhFWSPjpSc25S3YUUUVZIUUUUAFFFFABUc8ENzG0UyB0bqD2PqD61JRUyipLlkroabi7o5HUNJuLMtImZbbrvA+ZB6OB/Os2vQOvB6Vj3uh28+6S2IhlPJXH7pj9B0/Cvk8dkTTc8N93+R9DhM1T9yv9/8AmcvRVi5s7u0bE8TKM4D9Ub6MOKr18xOEoS5ZqzPdjJTXNF3QUUUVBQUUUUAFFFFABRRRQAUUUUAFFFFABRRRQAUUUUAFFFFABRRRQAUUUUAFFFFABRRRQAUUUUAFFFFABRRRQAUUUUAFFFFABRRRQAUUUUAFFFPjilmcJFG8jn+FASfxppNuyE2krsZVm0srq9fZCvyg/PI3CJ9T/Staz0BjtkvWwOvkxnk/7zD+n51vxxRQoscSKiKMBVGAK+iwOR1KrU8R7q7dX/l+Z4+KzSFP3aOr79P+CVrHT7exTEY3SMB5krD5m9h6D2q3RRX2NOlClFQgrJHzU6kqknKbu2FFFFaEBRRRQAUUUUAFFFFABRRRQAUUUUAIyqwKsoZTwQwBB+oNZlxoenTZaMNA57xH5f8Avg8fyrUorCth6VdWqxTNaVapSd6bscvNoF8mTC8Uo7DJRvyPH61Rk0/UYs77WYAd1XePzXNdtRXjVcgw8tYNx/H+vvPTp5vWj8STOBKuv3lZf95SP503Ir0AgHqAfrTfKh/55p/3yK4nw6+lT8P+CdKzpdYfj/wDgcj1oyPWu98qH/nnH/3ytHlQ/wDPOP8A75Wl/q7L/n5+H/BH/bUf5Px/4BwWR60ZHrXe+VD/AM84/wDvlaPKh/55x/8AfK0f6uy/5+fh/wAEP7aj/J+P/AOCyPWjI9a73yof+ecf/fK0eVD/AM84/wDvlaP9XZf8/Pw/4If21H+T8f8AgHBZHrRketd75UP/ADzj/wC+Vo8qH/nnH/3ytH+rsv8An5+H/BD+2o/yfj/wDgsj1oyPWu98qH/nnH/3ytHlQ/8APOP/AL5Wj/V2X/Pz8P8Agh/bUf5Px/4BwWR60ZHrXe+VD/zzj/75Wjyof+ecf/fK0f6uy/5+fh/wQ/tqP8n4/wDAOCyPWjI9a73yof8AnnH/AN8rR5UP/POP/vlaP9XZf8/Pw/4If21H+T8f+AcFketGR613vlQ/884/++Vo8qH/AJ5x/wDfK0f6uy/5+fh/wQ/tqP8AJ+P/AADgsj1oyPWu98qH/nnH/wB8rR5UP/POP/vlaP8AV2X/AD8/D/gh/bUf5Px/4BwWR60ZHrXe+VD/AM84/wDvlaPKh/55x/8AfK0f6uy/5+fh/wAEP7aj/J+P/AOCyPWjI9a73yof+ecf/fK0eVD/AM84/wDvlaP9XZf8/Pw/4If21H+T8f8AgHBZHrRketd75UP/ADzj/wC+Vo8qH/nnH/3ytH+rsv8An5+H/BD+2o/yfj/wDgsj1oyPWu98qH/nnH/3ytHlQ/8APOP/AL5Wj/V2X/Pz8P8Agh/bUf5Px/4BwWR60ZHrXe+VD/zzj/75Wjyof+ecf/fK0f6uy/5+fh/wQ/tqP8n4/wDAOCyPWjI9a73yof8AnnH/AN8rR5UP/POP/vlaP9XZf8/Pw/4If21H+T8f+AcFketGR613vlQ/884/++Vo8qH/AJ5x/wDfK0f6uy/5+fh/wQ/tqP8AJ+P/AADgsilAJ6An6An+Vd55UP8Azzj/AO+VpwVR0UD6ACmuHX1qfh/wQedLpD8f+AcPHaXsv+rtp2+kbY/MjFXYdD1OTG9Y4h6yMCfyTNdZRXVT4foR1nJv8DnnnFV/BFL8TFt/D9qmDcSPKf7q/In6c/rWtFBBAoSGNI19EAGfrUlFezQwdDD/AMKKX5/eebVxNWt/ElcKKKK6jnCiiigAooooAKKKKACiiigAooooAKKKKACiiigAooooAKKKKACiiigAooooAKKKKACiiigAooooAKKKKACiiigAooooAKKKKACiiigAooooAKKKKACiiigAooooAKKKKACiiigAooooAKKKKACiiigAooooAKKKKACiiigAooooAKKKKAP/2Q==;" vertex="1" parent="1">
                    <mxGeometry x="100" y="240" width="85.74" height="53" as="geometry"/>
                </mxCell>
            </root>
        </mxGraphModel>
    </diagram>
</mxfile>